<?xml version="1.0" encoding="UTF-8" standalone="no"?>
<!DOCTYPE svg PUBLIC "-//W3C//DTD SVG 20010904//EN"
              "http://www.w3.org/TR/2001/REC-SVG-20010904/DTD/svg10.dtd">

<svg xmlns="http://www.w3.org/2000/svg"
     width="2.20333in" height="0.343333in"
     viewBox="0 0 661 103">
  <path id="Selection"
        fill="black" stroke="white" stroke-width="4"
        d="M 43.00,0.00
           C 43.00,0.00 69.00,0.00 69.00,0.00
             69.00,0.00 64.00,25.00 64.00,25.00
             64.00,25.00 38.00,25.00 38.00,25.00
             38.00,25.00 43.00,0.00 43.00,0.00 Z
           M 83.00,0.00
           C 83.00,0.00 109.00,0.00 109.00,0.00
             109.00,0.00 97.80,58.00 97.80,58.00
             96.04,66.78 91.67,76.75 105.00,77.00
             105.00,77.00 116.00,77.00 116.00,77.00
             116.00,77.00 127.20,18.00 127.20,18.00
             127.20,18.00 131.73,0.99 131.73,0.99
             131.73,0.99 139.00,0.00 139.00,0.00
             139.00,0.00 156.00,0.00 156.00,0.00
             156.00,0.00 150.40,31.00 150.40,31.00
             150.40,31.00 140.65,80.00 140.65,80.00
             140.65,80.00 137.42,96.00 137.42,96.00
             137.07,97.86 136.83,100.75 135.26,102.01
             133.71,103.26 129.95,103.00 128.00,103.00
             128.00,103.00 106.00,103.00 106.00,103.00
             90.31,103.00 76.17,103.06 70.10,85.00
             67.34,76.78 70.51,64.43 72.20,56.00
             72.20,56.00 83.00,0.00 83.00,0.00 Z
           M 175.00,0.00
           C 175.00,0.00 213.00,0.00 213.00,0.00
             228.69,0.02 241.57,7.97 241.99,25.00
             242.18,33.11 239.98,41.09 238.40,49.00
             238.40,49.00 228.00,103.00 228.00,103.00
             228.00,103.00 202.00,103.00 202.00,103.00
             202.00,103.00 212.60,49.00 212.60,49.00
             213.51,44.43 217.06,32.87 214.39,29.15
             211.09,24.56 200.21,26.00 195.00,26.00
             195.00,26.00 183.80,85.00 183.80,85.00
             183.80,85.00 179.27,102.01 179.27,102.01
             179.27,102.01 172.00,103.00 172.00,103.00
             172.00,103.00 155.00,103.00 155.00,103.00
             155.00,103.00 161.40,68.00 161.40,68.00
             161.40,68.00 175.00,0.00 175.00,0.00 Z
           M 266.00,0.00
           C 266.00,0.00 292.00,0.00 292.00,0.00
             292.00,0.00 289.00,17.00 289.00,17.00
             289.00,17.00 286.42,23.98 286.42,23.98
             286.42,23.98 279.00,25.00 279.00,25.00
             279.00,25.00 262.00,25.00 262.00,25.00
             262.00,25.00 266.00,0.00 266.00,0.00 Z
           M 340.04,0.00
           C 340.04,0.00 357.00,0.00 357.00,0.00
             357.00,0.00 364.26,0.99 364.26,0.99
             364.26,0.99 366.01,8.00 366.01,8.00
             366.01,8.00 367.42,24.00 367.42,24.00
             367.42,24.00 371.17,70.00 371.17,70.00
             371.17,70.00 374.00,103.00 374.00,103.00
             374.00,103.00 283.00,103.00 283.00,103.00
             283.00,103.00 305.58,53.00 305.58,53.00
             307.09,49.54 311.18,39.07 314.39,37.57
             315.92,36.86 319.26,37.00 321.00,37.00
             321.00,37.00 340.00,37.00 340.00,37.00
             340.00,37.00 323.00,77.00 323.00,77.00
             323.00,77.00 343.00,77.00 343.00,77.00
             343.00,77.00 343.00,65.00 343.00,65.00
             343.00,65.00 342.00,46.00 342.00,46.00
             342.00,46.00 341.00,25.00 341.00,25.00
             341.00,25.00 340.04,13.00 340.04,13.00
             340.04,13.00 340.04,0.00 340.04,0.00 Z
           M 400.00,0.00
           C 400.00,0.00 426.00,0.00 426.00,0.00
             426.00,0.00 414.80,58.00 414.80,58.00
             413.04,66.78 408.67,76.75 422.00,77.00
             422.00,77.00 433.00,77.00 433.00,77.00
             433.00,77.00 444.20,18.00 444.20,18.00
             444.20,18.00 448.73,0.99 448.73,0.99
             448.73,0.99 456.00,0.00 456.00,0.00
             456.00,0.00 473.00,0.00 473.00,0.00
             473.00,0.00 467.40,31.00 467.40,31.00
             467.40,31.00 457.66,80.00 457.66,80.00
             457.66,80.00 454.60,96.00 454.60,96.00
             454.22,97.84 453.82,100.78 452.27,102.01
             450.69,103.26 446.97,103.00 445.00,103.00
             445.00,103.00 423.00,103.00 423.00,103.00
             407.31,103.00 393.17,103.06 387.10,85.00
             384.34,76.78 387.51,64.43 389.20,56.00
             389.20,56.00 400.00,0.00 400.00,0.00 Z
           M 488.00,0.00
           C 488.00,0.00 561.00,0.00 561.00,0.00
             561.00,0.00 556.00,26.00 556.00,26.00
             556.00,26.00 483.00,26.00 483.00,26.00
             483.00,26.00 488.00,0.00 488.00,0.00 Z
           M 611.00,0.43
           C 617.88,-0.42 623.25,-0.14 630.00,1.43
             657.09,7.72 664.57,35.08 656.97,59.00
             648.77,84.81 622.99,103.30 596.00,103.00
             591.07,102.94 586.69,102.19 582.00,100.64
             554.19,91.48 550.67,63.03 560.07,39.00
             568.27,18.01 589.44,3.96 611.00,0.43 Z
           M 607.00,26.17
           C 596.16,28.78 586.04,37.13 582.78,48.00
             578.55,62.14 584.85,76.59 601.00,76.99
             614.96,77.32 627.10,69.25 632.05,56.00
             637.44,41.58 630.61,26.42 614.00,26.17
             614.00,26.17 607.00,26.17 607.00,26.17 Z
           M 1.00,103.00
           C 1.28,96.92 2.80,90.95 4.00,85.00
             4.42,82.94 4.84,79.35 6.58,78.02
             8.50,76.56 14.48,77.04 17.00,77.00
             20.86,76.93 23.65,76.71 26.43,73.66
             29.22,70.60 29.81,65.92 30.60,62.00
             30.60,62.00 34.60,42.00 34.60,42.00
             35.03,39.85 35.90,34.09 37.16,32.57
             38.80,30.58 42.64,31.00 45.00,31.00
             45.00,31.00 62.00,31.00 62.00,31.00
             61.70,37.54 59.35,47.27 58.00,54.00
             54.93,69.37 54.89,79.25 43.00,90.99
             39.39,94.54 36.61,96.93 32.00,99.11
             21.44,104.10 12.25,103.00 1.00,103.00 Z
           M 260.00,31.00
           C 260.00,31.00 286.00,31.00 286.00,31.00
             286.00,31.00 272.00,103.00 272.00,103.00
             272.00,103.00 246.00,103.00 246.00,103.00
             246.00,103.00 260.00,31.00 260.00,31.00 Z
           M 541.00,103.00
           C 541.00,103.00 502.00,103.00 502.00,103.00
             494.70,102.96 487.73,101.71 482.09,96.67
             468.90,84.87 474.25,68.75 477.20,54.00
             480.45,37.75 479.12,37.06 488.00,37.00
             488.00,37.00 506.00,37.00 506.00,37.00
             506.00,37.00 501.29,62.00 501.29,62.00
             500.71,65.46 499.24,70.57 501.29,73.77
             503.12,77.00 506.68,76.95 510.00,77.00
             510.00,77.00 545.00,77.00 545.00,77.00
             545.00,77.00 541.00,103.00 541.00,103.00 Z" />
</svg>
